<svg xmlns="http://www.w3.org/2000/svg" xmlns:xlink="http://www.w3.org/1999/xlink" width="100" zoomAndPan="magnify" viewBox="0 0 75 30.000001" height="40" preserveAspectRatio="xMidYMid meet" version="1.0"><path fill="#6d83bd" d="M 12.757812 9.171875 C 12.433594 9.203125 12.1875 9.511719 12.1875 9.835938 L 12.1875 17.890625 L 8.269531 12.269531 C 8.152344 12.085938 7.980469 11.996094 7.765625 11.992188 C 7.304688 12.007812 7.027344 12.53125 7.289062 12.917969 L 11.941406 19.601562 C 12.097656 19.816406 12.339844 19.953125 12.617188 19.953125 C 13.078125 19.953125 13.460938 19.585938 13.460938 19.121094 L 13.460938 9.804688 C 13.460938 9.433594 13.140625 9.144531 12.757812 9.171875 Z M 4.84375 19.324219 C 4.84375 19.660156 5.136719 19.953125 5.476562 19.953125 C 5.828125 19.953125 6.121094 19.660156 6.121094 19.324219 L 6.121094 9.804688 C 6.121094 9.464844 5.828125 9.171875 5.476562 9.171875 C 5.136719 9.171875 4.84375 9.464844 4.84375 9.804688 Z M 4.84375 19.324219 " fill-opacity="1" fill-rule="nonzero"/><path fill="#6088c2" d="M 23.550781 15.320312 C 23.289062 13.253906 21.570312 11.652344 19.480469 11.652344 C 17.222656 11.652344 15.378906 13.546875 15.378906 15.886719 C 15.378906 18.214844 17.222656 20.109375 19.480469 20.109375 C 20.753906 20.109375 21.890625 19.523438 22.628906 18.582031 C 22.96875 18.167969 22.660156 17.550781 22.136719 17.550781 C 21.9375 17.550781 21.753906 17.644531 21.628906 17.796875 C 21.367188 18.125 21.050781 18.378906 20.671875 18.558594 C 20.296875 18.738281 19.898438 18.828125 19.480469 18.828125 C 18.511719 18.828125 17.667969 18.335938 17.144531 17.550781 C 16.929688 17.226562 16.777344 16.84375 16.699219 16.441406 L 23.027344 16.441406 C 23.179688 16.445312 23.3125 16.390625 23.421875 16.28125 C 23.527344 16.171875 23.582031 16.042969 23.582031 15.886719 C 23.582031 15.6875 23.566406 15.503906 23.550781 15.320312 M 16.699219 15.320312 C 16.960938 13.964844 18.097656 12.929688 19.480469 12.929688 C 20.863281 12.929688 22.015625 13.964844 22.261719 15.320312 Z M 16.699219 15.320312 " fill-opacity="1" fill-rule="nonzero"/><path fill="#528cc8" d="M 30.933594 19.105469 L 28.519531 15.609375 L 30.5625 12.824219 C 30.777344 12.546875 30.71875 12.144531 30.441406 11.929688 C 30.148438 11.730469 29.75 11.792969 29.550781 12.070312 L 27.738281 14.53125 L 25.925781 12.070312 C 25.710938 11.792969 25.308594 11.730469 25.035156 11.929688 C 24.742188 12.144531 24.679688 12.546875 24.894531 12.824219 L 26.953125 15.609375 L 24.527344 19.105469 C 24.425781 19.253906 24.394531 19.414062 24.425781 19.589844 C 24.460938 19.761719 24.550781 19.898438 24.695312 20 C 24.804688 20.078125 24.925781 20.109375 25.050781 20.109375 C 25.265625 20.109375 25.449219 20.015625 25.570312 19.847656 L 27.738281 16.71875 L 29.886719 19.847656 C 30.011719 20.015625 30.210938 20.109375 30.410156 20.109375 C 30.53125 20.109375 30.65625 20.078125 30.777344 20 C 31.054688 19.800781 31.132812 19.398438 30.933594 19.105469 " fill-opacity="1" fill-rule="nonzero"/><path fill="#4591cd" d="M 35.371094 18.816406 C 34.496094 18.613281 33.835938 17.796875 33.835938 16.8125 L 33.835938 13.007812 L 35.234375 13.007812 C 35.386719 13.007812 35.519531 12.957031 35.625 12.847656 C 35.734375 12.738281 35.789062 12.609375 35.785156 12.453125 C 35.785156 12.144531 35.542969 11.882812 35.234375 11.882812 L 33.835938 11.882812 L 33.835938 9.757812 C 33.835938 9.605469 33.785156 9.476562 33.675781 9.367188 C 33.566406 9.257812 33.4375 9.203125 33.285156 9.203125 L 33.113281 9.203125 C 32.960938 9.203125 32.832031 9.257812 32.722656 9.367188 C 32.613281 9.476562 32.5625 9.605469 32.5625 9.757812 L 32.5625 16.8125 C 32.5625 18.414062 33.652344 19.753906 35.125 20.0625 C 35.464844 20.140625 35.785156 19.878906 35.785156 19.523438 L 35.785156 19.355469 C 35.785156 19.105469 35.617188 18.875 35.371094 18.816406 " fill-opacity="1" fill-rule="nonzero"/><path fill="#3795d3" d="M 37.792969 10.453125 L 43.261719 10.453125 C 43.4375 10.449219 43.589844 10.386719 43.714844 10.261719 C 43.839844 10.136719 43.90625 9.984375 43.90625 9.804688 C 43.90625 9.464844 43.613281 9.171875 43.261719 9.171875 L 37.792969 9.171875 C 37.453125 9.171875 37.164062 9.464844 37.164062 9.804688 C 37.164062 10.160156 37.453125 10.453125 37.792969 10.453125 M 37.164062 19.324219 C 37.164062 19.660156 37.453125 19.953125 37.792969 19.953125 L 43.261719 19.953125 C 43.613281 19.953125 43.90625 19.660156 43.90625 19.324219 C 43.90625 19.144531 43.839844 18.992188 43.714844 18.867188 C 43.589844 18.742188 43.4375 18.675781 43.261719 18.675781 L 38.4375 18.675781 L 38.4375 14.996094 L 42.429688 14.996094 C 42.785156 14.996094 43.074219 14.71875 43.074219 14.363281 C 43.074219 14.183594 43.011719 14.035156 42.886719 13.90625 C 42.761719 13.78125 42.609375 13.71875 42.429688 13.71875 L 37.792969 13.71875 C 37.453125 13.71875 37.164062 14.007812 37.164062 14.363281 Z M 37.164062 19.324219 " fill-opacity="1" fill-rule="nonzero"/><path fill="#2a9ad8" d="M 53.191406 19.324219 L 53.191406 15.886719 C 53.191406 13.546875 51.347656 11.652344 49.089844 11.652344 C 46.832031 11.652344 44.988281 13.546875 44.988281 15.886719 C 44.988281 18.214844 46.832031 20.109375 49.089844 20.109375 C 50.195312 20.109375 51.179688 19.660156 51.917969 18.9375 L 51.917969 19.324219 C 51.917969 19.660156 52.210938 19.953125 52.5625 19.953125 C 52.914062 19.953125 53.191406 19.660156 53.191406 19.324219 M 46.265625 15.886719 C 46.265625 14.257812 47.539062 12.929688 49.089844 12.929688 C 50.65625 12.929688 51.917969 14.257812 51.917969 15.886719 C 51.917969 17.503906 50.65625 18.828125 49.089844 18.828125 C 47.539062 18.828125 46.265625 17.503906 46.265625 15.886719 " fill-opacity="1" fill-rule="nonzero"/><path fill="#1c9ede" d="M 57.917969 15.011719 C 56.902344 14.640625 56.289062 14.363281 56.289062 13.855469 C 56.289062 13.238281 57.101562 12.929688 57.546875 12.929688 C 58.101562 12.929688 58.578125 13.191406 58.746094 13.59375 C 58.886719 13.917969 59.269531 14.070312 59.589844 13.933594 C 59.914062 13.792969 60.066406 13.410156 59.914062 13.085938 C 59.546875 12.207031 58.609375 11.652344 57.550781 11.652344 C 56.488281 11.652344 55.015625 12.421875 55.015625 13.855469 C 55.015625 15.289062 56.382812 15.796875 57.472656 16.210938 C 58.65625 16.660156 59.207031 16.921875 59.207031 17.519531 C 59.207031 18.015625 58.871094 18.828125 57.59375 18.828125 C 56.71875 18.828125 56.304688 18.261719 56.105469 17.78125 C 55.964844 17.460938 55.597656 17.304688 55.277344 17.445312 C 54.953125 17.566406 54.785156 17.953125 54.921875 18.277344 C 55.398438 19.445312 56.382812 20.109375 57.59375 20.109375 C 59.5 20.109375 60.484375 18.816406 60.484375 17.519531 C 60.484375 15.980469 59.070312 15.441406 57.917969 15.011719 " fill-opacity="1" fill-rule="nonzero"/><path fill="#0fa3e3" d="M 70.082031 15.320312 C 69.820312 13.253906 68.101562 11.652344 66.011719 11.652344 C 63.753906 11.652344 61.910156 13.546875 61.910156 15.886719 C 61.910156 18.214844 63.753906 20.109375 66.011719 20.109375 C 67.285156 20.109375 68.421875 19.523438 69.160156 18.582031 C 69.5 18.167969 69.191406 17.550781 68.667969 17.550781 C 68.46875 17.550781 68.285156 17.644531 68.160156 17.796875 C 67.898438 18.125 67.578125 18.378906 67.203125 18.558594 C 66.828125 18.738281 66.429688 18.828125 66.011719 18.828125 C 65.042969 18.828125 64.199219 18.335938 63.675781 17.550781 C 63.460938 17.226562 63.308594 16.84375 63.230469 16.441406 L 69.558594 16.441406 C 69.710938 16.445312 69.84375 16.390625 69.953125 16.28125 C 70.058594 16.171875 70.113281 16.042969 70.113281 15.886719 C 70.113281 15.6875 70.097656 15.503906 70.082031 15.320312 M 63.230469 15.320312 C 63.492188 13.964844 64.628906 12.929688 66.011719 12.929688 C 67.394531 12.929688 68.546875 13.964844 68.792969 15.320312 Z M 63.230469 15.320312 " fill-opacity="1" fill-rule="nonzero"/></svg>